<svg xmlns="http://www.w3.org/2000/svg" width="24" height="24" viewBox="0 0 24 24">
  <g id="Adults" transform="translate(8977 -3987)">
    <path id="Path_38661" data-name="Path 38661" d="M0,0H24V24H0Z" transform="translate(-8977 3987)" fill="none"/>
    <g id="Group_33781" data-name="Group 33781" transform="translate(-8984 3984.55)">
      <g id="Icons" transform="translate(12 4)">
        <g id="Group_32876" data-name="Group 32876">
          <g id="Group_32853" data-name="Group 32853" transform="translate(3.715)">
            <path id="Path_38288" data-name="Path 38288" d="M26.458,4H24.972A2.972,2.972,0,0,0,22,6.972V9.2h7.43V6.972A2.972,2.972,0,0,0,26.458,4Z" transform="translate(-22 -4)" fill="#0a5078"/>
          </g>
          <g id="Group_32854" data-name="Group 32854" transform="translate(2.972 10.402)">
            <path id="Path_38289" data-name="Path 38289" d="M20,32h8.916V42.4H20Z" transform="translate(-20 -32)" fill="#00a0c8"/>
          </g>
          <g id="Group_32855" data-name="Group 32855" transform="translate(6.687 12.631)">
            <path id="Path_38290" data-name="Path 38290" d="M31.115,41.715h-.743A.372.372,0,0,1,30,41.344V38h1.486v3.344A.372.372,0,0,1,31.115,41.715Z" transform="translate(-30 -38)" fill="#0082aa"/>
          </g>
          <g id="Group_32856" data-name="Group 32856" transform="translate(5.108 10.402)">
            <path id="Path_38291" data-name="Path 38291" d="M25.75,32l.611,2.445a.743.743,0,0,0,1.053.484l.658-.329.658.329a.743.743,0,0,0,1.053-.484L30.394,32Z" transform="translate(-25.75 -32)" fill="#0082aa"/>
          </g>
          <g id="Group_32857" data-name="Group 32857" transform="translate(5.201 10.402)">
            <path id="Path_38292" data-name="Path 38292" d="M28.229,34.229l-.658.329a.743.743,0,0,1-1.053-.484L26,32h.743Z" transform="translate(-26 -32)" fill="#f0f0f0"/>
          </g>
          <g id="Group_32858" data-name="Group 32858" transform="translate(7.43 10.402)">
            <path id="Path_38293" data-name="Path 38293" d="M32,34.229l.658.329a.743.743,0,0,0,1.053-.484L34.229,32h-.743Z" transform="translate(-32 -32)" fill="#f0f0f0"/>
          </g>
          <g id="Group_32859" data-name="Group 32859" transform="translate(5.944 8.173)">
            <path id="Path_38294" data-name="Path 38294" d="M28,26h2.972v2.229H28Z" transform="translate(-28 -26)" fill="#d2aa82"/>
          </g>
          <g id="Group_32860" data-name="Group 32860" transform="translate(3.715 2.972)">
            <path id="Path_38295" data-name="Path 38295" d="M28.687,14.229V12.743A.743.743,0,0,0,27.944,12H23.486a.743.743,0,0,0-.743.743v1.486H22v1.486a2.972,2.972,0,0,0,2.972,2.972h1.486a2.972,2.972,0,0,0,2.972-2.972V14.229Z" transform="translate(-22 -12)" fill="#f0c8a0"/>
          </g>
          <g id="Group_32861" data-name="Group 32861" transform="translate(2.972 4.458)">
            <path id="Path_38296" data-name="Path 38296" d="M20.743,18.229V16a.743.743,0,0,0-.743.743v.743A.743.743,0,0,0,20.743,18.229Z" transform="translate(-20 -16)" fill="#d2aa82"/>
          </g>
          <g id="Group_32862" data-name="Group 32862" transform="translate(11.145 4.458)">
            <path id="Path_38297" data-name="Path 38297" d="M42,18.229V16a.743.743,0,0,1,.743.743v.743A.743.743,0,0,1,42,18.229Z" transform="translate(-42 -16)" fill="#d2aa82"/>
          </g>
          <g id="Group_32863" data-name="Group 32863" transform="translate(0 15.603)">
            <path id="Path_38298" data-name="Path 38298" d="M12,46h2.972v5.2H12Z" transform="translate(-12 -46)" fill="#f0c8a0"/>
          </g>
          <g id="Group_32864" data-name="Group 32864" transform="translate(11.888 15.603)">
            <path id="Path_38299" data-name="Path 38299" d="M44,46h2.972v5.2H44Z" transform="translate(-44 -46)" fill="#f0c8a0"/>
          </g>
          <g id="Group_32865" data-name="Group 32865" transform="translate(0 15.603)">
            <path id="Path_38300" data-name="Path 38300" d="M12,46h2.972v.372H12Z" transform="translate(-12 -46)" fill="#d2aa82"/>
          </g>
          <g id="Group_32866" data-name="Group 32866" transform="translate(11.888 15.603)">
            <path id="Path_38301" data-name="Path 38301" d="M44,46h2.972v.372H44Z" transform="translate(-44 -46)" fill="#d2aa82"/>
          </g>
          <g id="Group_32867" data-name="Group 32867" transform="translate(0 10.402)">
            <path id="Path_38302" data-name="Path 38302" d="M12,34.972V37.2h2.972V32A2.972,2.972,0,0,0,12,34.972Z" transform="translate(-12 -32)" fill="#0082aa"/>
          </g>
          <g id="Group_32868" data-name="Group 32868" transform="translate(11.888 10.402)">
            <path id="Path_38303" data-name="Path 38303" d="M44,32v5.2h2.972V34.972A2.972,2.972,0,0,0,44,32Z" transform="translate(-44 -32)" fill="#0082aa"/>
          </g>
          <g id="Group_32869" data-name="Group 32869" transform="translate(5.944 10.402)">
            <path id="Path_38304" data-name="Path 38304" d="M30.972,32l-1.486,2.229L28,32Z" transform="translate(-28 -32)" fill="#d2aa82"/>
          </g>
          <g id="Group_32870" data-name="Group 32870" transform="translate(3.715 4.458)">
            <path id="Path_38305" data-name="Path 38305" d="M22.743,16v2.229a2.229,2.229,0,0,0,2.229,2.229h1.486a2.229,2.229,0,0,0,2.229-2.229V16h.743v2.229A2.972,2.972,0,0,1,26.458,21.2H24.972A2.972,2.972,0,0,1,22,18.229V16Z" transform="translate(-22 -16)" fill="#0a5078"/>
          </g>
          <g id="Group_32871" data-name="Group 32871" transform="translate(5.944 6.687)">
            <path id="Path_38306" data-name="Path 38306" d="M30.229,22H28.743a.743.743,0,0,0-.743.743v1.486h2.972V22.743A.743.743,0,0,0,30.229,22Z" transform="translate(-28 -22)" fill="#0a5078"/>
          </g>
          <g id="Group_32872" data-name="Group 32872" transform="translate(6.687 7.43)">
            <path id="Path_38307" data-name="Path 38307" d="M31.115,24.743h-.743a.372.372,0,0,1,0-.743h.743a.372.372,0,1,1,0,.743Z" transform="translate(-30 -24)" fill="#f0c8a0"/>
          </g>
          <g id="Group_32873" data-name="Group 32873" transform="translate(4.458)">
            <path id="Path_38308" data-name="Path 38308" d="M29.2,6.972H24V6.229A2.229,2.229,0,0,1,26.229,4h3.715a.743.743,0,0,1,.743.743v.743A1.486,1.486,0,0,1,29.2,6.972Z" transform="translate(-24 -4)" fill="#0a5078"/>
          </g>
          <g id="Group_32874" data-name="Group 32874" transform="translate(0 14.86)">
            <path id="Path_38309" data-name="Path 38309" d="M12,44h2.972v.743H12Z" transform="translate(-12 -44)" fill="#00a0c8"/>
          </g>
          <g id="Group_32875" data-name="Group 32875" transform="translate(11.888 14.86)">
            <path id="Path_38310" data-name="Path 38310" d="M44,44h2.972v.743H44Z" transform="translate(-44 -44)" fill="#00a0c8"/>
          </g>
        </g>
      </g>
    </g>
  </g>
</svg>
