<svg xmlns="http://www.w3.org/2000/svg" width="24" height="24" viewBox="0 0 24 24">
  <g id="Family" transform="translate(8925 -4088)">
    <path id="Path_38662" data-name="Path 38662" d="M0,0H24V24H0Z" transform="translate(-8925 4088)" fill="none"/>
    <g id="Group_33783" data-name="Group 33783" transform="translate(-8926.215 4090)">
      <path id="Path_38583" data-name="Path 38583" d="M275.087,224.2a1.821,1.821,0,0,0-1.82,1.769v1.467h3.328V224.2Z" transform="translate(-259.608 -215.53)" fill="#8379c1"/>
      <path id="Path_38584" data-name="Path 38584" d="M273.974,32.208l.547,3.64A2.057,2.057,0,0,1,274.36,37a1.831,1.831,0,0,1-1.654,1.1h-3.775a1.831,1.831,0,0,1-1.654-1.1,2.057,2.057,0,0,1-.161-1.157l.547-3.641a1.7,1.7,0,0,1,1.391-1.455,11.641,11.641,0,0,1,3.52,0h.006A1.7,1.7,0,0,1,273.974,32.208Z" transform="translate(-253.674 -29.434)" fill="#c86d36"/>
      <path id="Path_38585" data-name="Path 38585" d="M334.2,218.274a2.989,2.989,0,0,1-1.174-.238v.716a1.174,1.174,0,0,0,2.347,0v-.716A2.989,2.989,0,0,1,334.2,218.274Z" transform="translate(-317.056 -209.603)" fill="#ffa78f"/>
      <path id="Path_38586" data-name="Path 38586" d="M307.943,231.2a2.158,2.158,0,0,0,.468-1.627l-.227-1.99a5.631,5.631,0,0,0-3.745-4.68l-2.093.728a2.272,2.272,0,0,0-1.422,1.935l-.457,4.008a2.158,2.158,0,0,0,.468,1.627,1.586,1.586,0,0,0,1.209.589h4.591A1.586,1.586,0,0,0,307.943,231.2Z" transform="translate(-285.741 -214.284)" fill="#c86d36"/>
      <path id="Path_38587" data-name="Path 38587" d="M390.661,229.576l-.227-1.99a5.631,5.631,0,0,0-3.745-4.68l-.678.236a5.631,5.631,0,0,1,3.172,4.445l.227,1.99a2.158,2.158,0,0,1-.468,1.627,1.586,1.586,0,0,1-1.209.589h1.251a1.586,1.586,0,0,0,1.209-.589A2.158,2.158,0,0,0,390.661,229.576Z" transform="translate(-367.991 -214.284)" fill="#ac5e2e"/>
      <path id="Path_38588" data-name="Path 38588" d="M356.222,35.851l-.547-3.64a1.7,1.7,0,0,0-1.392-1.455h-.006a11.644,11.644,0,0,0-2.194-.125,11.66,11.66,0,0,1,1.321.125h.006a1.7,1.7,0,0,1,1.392,1.455l.547,3.64a2.057,2.057,0,0,1-.161,1.157,1.831,1.831,0,0,1-1.654,1.1h.874a1.831,1.831,0,0,0,1.654-1.1A2.056,2.056,0,0,0,356.222,35.851Z" transform="translate(-335.375 -29.437)" fill="#c86d36"/>
      <path id="Path_38589" data-name="Path 38589" d="M326.834,444.727h-6.42v-1.556a1.147,1.147,0,0,1,1.147-1.147h4.125a1.147,1.147,0,0,1,1.147,1.147Z" transform="translate(-304.931 -424.928)" fill="#f58a97"/>
      <path id="Path_38590" data-name="Path 38590" d="M428.472,442.023h-1.137a1.147,1.147,0,0,1,1.147,1.147v1.556h1.137v-1.556A1.147,1.147,0,0,0,428.472,442.023Z" transform="translate(-407.717 -424.928)" fill="#f07281"/>
      <path id="Path_38591" data-name="Path 38591" d="M143.051,224.2a1.821,1.821,0,0,1,1.821,1.821v1.935h-3.631V224.2Z" transform="translate(-132.688 -215.53)" fill="#0ab69f"/>
      <path id="Path_38592" data-name="Path 38592" d="M124.368,191.947V190.3h-2.347v1.65a1.174,1.174,0,1,0,2.347,0Z" transform="translate(-114.211 -182.937)" fill="#ffcebf"/>
      <path id="Path_38593" data-name="Path 38593" d="M59.774,51.478H56.886a.837.837,0,0,0-.837.837v2.192h3.725Z" transform="translate(-50.791 -49.487)" fill="#acacac"/>
      <path id="Path_38594" data-name="Path 38594" d="M59.774,51.478H56.886a.837.837,0,0,0-.837.837v2.192h3.725Z" transform="translate(-50.791 -49.487)" fill="#9e5528"/>
      <path id="Path_38595" data-name="Path 38595" d="M52.24,42.677H52.2a3.1,3.1,0,0,0-6.107,0h-.043a1.051,1.051,0,0,0,0,2.1h.043a3.1,3.1,0,0,0,6.107,0h.043a1.051,1.051,0,1,0,0-2.1Z" transform="translate(-40.165 -38.545)" fill="#ffcebf"/>
      <g id="Group_32939" data-name="Group 32939" transform="translate(7.264 4.919)">
        <g id="Group_32937" data-name="Group 32937">
          <path id="Path_38596" data-name="Path 38596" d="M108.107,128.172a.2.2,0,0,1-.2-.2v-.57a.2.2,0,0,1,.407,0v.57A.2.2,0,0,1,108.107,128.172Z" transform="translate(-107.904 -127.195)" fill="#5a5a5a"/>
        </g>
        <g id="Group_32938" data-name="Group 32938" transform="translate(3.023)">
          <path id="Path_38597" data-name="Path 38597" d="M186.265,128.172a.2.2,0,0,1-.2-.2v-.57a.2.2,0,1,1,.407,0v.57A.2.2,0,0,1,186.265,128.172Z" transform="translate(-186.062 -127.195)" fill="#5a5a5a"/>
        </g>
      </g>
      <path id="Path_38601" data-name="Path 38601" d="M146.809,42.677h-.043a3.1,3.1,0,0,0-3.4-2.563,3.1,3.1,0,0,1,2.714,2.563h.043a1.051,1.051,0,0,1,0,2.1h-.043a3.1,3.1,0,0,1-2.714,2.563,3.1,3.1,0,0,0,3.4-2.563h.043a1.051,1.051,0,1,0,0-2.1Z" transform="translate(-134.734 -38.545)" fill="#ffb09e"/>
      <path id="Path_38602" data-name="Path 38602" d="M27.8,444.727h-6.42v-1.556a1.147,1.147,0,0,1,1.147-1.147h4.125a1.147,1.147,0,0,1,1.147,1.147Z" transform="translate(-17.462 -424.928)" fill="#82aee3"/>
      <path id="Path_38603" data-name="Path 38603" d="M129.437,442.023H128.3a1.147,1.147,0,0,1,1.147,1.147v1.556h1.137v-1.556A1.147,1.147,0,0,0,129.437,442.023Z" transform="translate(-120.247 -424.928)" fill="#528fd8"/>
      <path id="Path_38604" data-name="Path 38604" d="M75.624,394.507v-1.7H73.2v1.7a1.21,1.21,0,0,0,2.42,0Z" transform="translate(-67.282 -377.613)" fill="#ffa78f"/>
      <path id="Path_38605" data-name="Path 38605" d="M373.463,385.565v-1.773h-2.521v1.773a1.261,1.261,0,1,0,2.521,0Z" transform="translate(-353.505 -368.949)" fill="#ffa78f"/>
      <path id="Path_38606" data-name="Path 38606" d="M266.509,44.76h-.041a3,3,0,0,0-5.915,0h-.041a1.018,1.018,0,1,0,0,2.037h.041a3,3,0,0,0,5.915,0h.041a1.018,1.018,0,0,0,0-2.037Z" transform="translate(-246.365 -40.626)" fill="#ffcebf"/>
      <path id="Path_38607" data-name="Path 38607" d="M357.893,44.76h-.041a2.994,2.994,0,0,0-3.3-2.481,3,3,0,0,1,2.616,2.48h.042a1.018,1.018,0,0,1,0,2.037h-.042a3,3,0,0,1-2.616,2.48,2.994,2.994,0,0,0,3.3-2.481h.041a1.018,1.018,0,1,0,0-2.037Z" transform="translate(-337.75 -40.626)" fill="#ffb09e"/>
      <path id="Path_38608" data-name="Path 38608" d="M23.677,234.013h-2.3a1.208,1.208,0,0,0-1.2,1.314l.331,3.756h3.168Z" transform="translate(-16.302 -224.963)" fill="#9e5528"/>
      <path id="Path_38609" data-name="Path 38609" d="M305.16,247.969h-.042a3.043,3.043,0,0,0-6,0h-.042a1.033,1.033,0,1,0,0,2.066h.042a3.043,3.043,0,0,0,6,0h.042a1.033,1.033,0,1,0,0-2.066Z" transform="translate(-283.425 -235.941)" fill="#ffcebf"/>
      <g id="Group_32940" data-name="Group 32940" transform="translate(7.264 4.919)">
        <path id="Path_38610" data-name="Path 38610" d="M108.107,128.172a.2.2,0,0,1-.2-.2v-.57a.2.2,0,0,1,.407,0v.57A.2.2,0,0,1,108.107,128.172Z" transform="translate(-107.904 -127.195)" fill="#5a5a5a"/>
      </g>
      <g id="Group_32941" data-name="Group 32941" transform="translate(10.287 4.919)">
        <path id="Path_38611" data-name="Path 38611" d="M186.265,128.172a.2.2,0,0,1-.2-.2v-.57a.2.2,0,1,1,.407,0v.57A.2.2,0,0,1,186.265,128.172Z" transform="translate(-186.062 -127.195)" fill="#5a5a5a"/>
      </g>
      <path id="Path_38613" data-name="Path 38613" d="M396.437,127.678a.193.193,0,0,1-.193-.193v-.552a.193.193,0,0,1,.193-.193h.238a.193.193,0,0,1,0,.385h-.045v.36A.193.193,0,0,1,396.437,127.678Z" transform="translate(-377.829 -121.838)" fill="#5a5a5a"/>
      <path id="Path_38614" data-name="Path 38614" d="M314.83,127.678a.193.193,0,0,1-.193-.193v-.36h-.045a.193.193,0,0,1,0-.385h.237a.193.193,0,0,1,.193.193v.552A.193.193,0,0,1,314.83,127.678Z" transform="translate(-299.15 -121.838)" fill="#5a5a5a"/>
      <path id="Path_38615" data-name="Path 38615" d="M271.978,14.688h3.939a1.929,1.929,0,0,0,1.929-1.929,1.782,1.782,0,0,0-1.782-1.782h-1.6a2.484,2.484,0,0,0-2.484,2.484v1.227Z" transform="translate(-258.368 -10.552)" fill="#d77f4a"/>
      <path id="Path_38616" data-name="Path 38616" d="M352.26,10.977h-.874a1.782,1.782,0,0,1,1.782,1.782,1.929,1.929,0,0,1-1.929,1.929h.874a1.929,1.929,0,0,0,1.929-1.929A1.782,1.782,0,0,0,352.26,10.977Z" transform="translate(-334.563 -10.552)" fill="#c86d36"/>
      <path id="Path_38617" data-name="Path 38617" d="M10.048,253.308h-.04a2.921,2.921,0,0,0-5.761,0h-.04a.992.992,0,1,0,0,1.984h.04a2.921,2.921,0,0,0,5.761,0h.04a.992.992,0,0,0,0-1.984Z" transform="translate(0 -241.17)" fill="#ffcebf"/>
      <g id="Group_32942" data-name="Group 32942" transform="translate(5.401 12.771)">
        <path id="Path_38618" data-name="Path 38618" d="M60.037,331.354a.3.3,0,0,1-.3-.3v-.538a.3.3,0,0,1,.6,0v.538A.3.3,0,0,1,60.037,331.354Z" transform="translate(-59.736 -330.214)" fill="#5a5a5a"/>
      </g>
      <g id="Group_32943" data-name="Group 32943" transform="translate(8.252 12.771)">
        <path id="Path_38619" data-name="Path 38619" d="M133.761,331.354a.3.3,0,0,1-.3-.3v-.538a.3.3,0,0,1,.6,0v.538A.3.3,0,0,1,133.761,331.354Z" transform="translate(-133.46 -330.214)" fill="#5a5a5a"/>
      </g>
      <path id="Path_38620" data-name="Path 38620" d="M434.329,329.559a.3.3,0,0,1-.3-.3v-.56a.3.3,0,0,1,.3-.3h.241a.3.3,0,0,1,.06.6v.265A.3.3,0,0,1,434.329,329.559Z" transform="translate(-414.151 -315.696)" fill="#5a5a5a"/>
      <path id="Path_38621" data-name="Path 38621" d="M351.551,329.559a.3.3,0,0,1-.3-.3v-.265a.3.3,0,0,1,.06-.6h.241a.3.3,0,0,1,.3.3v.56A.3.3,0,0,1,351.551,329.559Z" transform="translate(-334.343 -315.696)" fill="#5a5a5a"/>
      <path id="Path_38622" data-name="Path 38622" d="M90.777,1.873A1.873,1.873,0,0,0,88.9,0H86.5a2.066,2.066,0,1,0,0,4.131h4.272V1.873Z" transform="translate(-78.083)" fill="#ac5e2e"/>
      <path id="Path_38623" data-name="Path 38623" d="M171.609,0h-1.137a1.873,1.873,0,0,1,1.873,1.873V4.131h1.137V1.873A1.873,1.873,0,0,0,171.609,0Z" transform="translate(-160.788)" fill="#9e5528"/>
      <path id="Path_38626" data-name="Path 38626" d="M81.48,368.948a.922.922,0,0,1-.921-.921.3.3,0,1,1,.6,0,.319.319,0,0,0,.639,0,.3.3,0,1,1,.6,0A.922.922,0,0,1,81.48,368.948Z" transform="translate(-74.353 -353.504)" fill="#ffa799"/>
      <path id="Path_38627" data-name="Path 38627" d="M379.873,368.718a.948.948,0,0,1-.947-.947.3.3,0,1,1,.6,0,.345.345,0,1,0,.69,0,.3.3,0,0,1,.6,0A.948.948,0,0,1,379.873,368.718Z" transform="translate(-361.18 -353.258)" fill="#ffa799"/>
      <path id="Path_38628" data-name="Path 38628" d="M397.975,247.969h-.042a3.037,3.037,0,0,0-3.341-2.517,3.043,3.043,0,0,1,2.659,2.517h.042a1.033,1.033,0,1,1,0,2.066h-.042a3.043,3.043,0,0,1-2.659,2.517,3.038,3.038,0,0,0,3.341-2.517h.042a1.033,1.033,0,1,0,0-2.066Z" transform="translate(-376.239 -235.941)" fill="#ffb09e"/>
      <path id="Path_38629" data-name="Path 38629" d="M98.818,253.308h-.04a2.917,2.917,0,0,0-3.222-2.415,2.922,2.922,0,0,1,2.539,2.415h.04a.992.992,0,0,1,0,1.984H98.1a2.922,2.922,0,0,1-2.539,2.415,2.916,2.916,0,0,0,3.222-2.415h.04a.992.992,0,1,0,0-1.984Z" transform="translate(-88.77 -241.17)" fill="#ffb09e"/>
      <path id="Path_38630" data-name="Path 38630" d="M348.086,217.465h-3.869a1.957,1.957,0,0,1-1.957-1.957,1.807,1.807,0,0,1,1.807-1.807h1.5a2.52,2.52,0,0,1,2.52,2.52Z" transform="translate(-325.932 -205.436)" fill="#d77f4a"/>
      <path id="Path_38631" data-name="Path 38631" d="M399.481,213.7h-1.137a2.52,2.52,0,0,1,2.52,2.52v1.244H402v-1.244A2.52,2.52,0,0,0,399.481,213.7Z" transform="translate(-379.847 -205.437)" fill="#c86d36"/>
      <path id="Path_38632" data-name="Path 38632" d="M47.471,214.749h-4a1.993,1.993,0,0,1-1.993-1.993v-.537a1.457,1.457,0,0,1,1.457-1.457H45.5a1.969,1.969,0,0,1,1.969,1.969Z" transform="translate(-36.787 -202.611)" fill="#ac5e2e"/>
      <path id="Path_38633" data-name="Path 38633" d="M117.146,210.761h-1.137a1.969,1.969,0,0,1,1.969,1.969v2.017h1.137V212.73A1.969,1.969,0,0,0,117.146,210.761Z" transform="translate(-108.432 -202.61)" fill="#9e5528"/>
      <path id="Path_38634" data-name="Path 38634" d="M168,344.452a1.69,1.69,0,0,0-.1-.4.712.712,0,0,0-.678-.484.65.65,0,0,0-.566.971l.079.135c-.444.131-.916-.231-1.247-.575a1.343,1.343,0,0,0,.225.575,1.414,1.414,0,0,1-1.318-.575,1.343,1.343,0,0,0,.225.575c-.793.233-1.679-1.106-1.679-1.106a2.705,2.705,0,0,0-.314.887h-.038a.925.925,0,1,0,0,1.849h.038a2.723,2.723,0,0,0,5.371,0h.038a.925.925,0,1,0-.038-1.848Z" transform="translate(-152.322 -330.278)" fill="#ffcebf"/>
      <path id="Path_38635" data-name="Path 38635" d="M234.123,420.469a.88.88,0,0,1-.879-.879.3.3,0,0,1,.6,0,.277.277,0,1,0,.555,0,.3.3,0,0,1,.6,0,.88.88,0,0,1-.879.879Z" transform="translate(-221.133 -403.073)" fill="#ffa799"/>
      <g id="Group_32944" data-name="Group 32944" transform="translate(11.361 14.864)">
        <path id="Path_38636" data-name="Path 38636" d="M214.132,385.42a.3.3,0,0,1-.3-.3v-.5a.3.3,0,1,1,.6,0v.5A.3.3,0,0,1,214.132,385.42Z" transform="translate(-213.831 -384.317)" fill="#5a5a5a"/>
      </g>
      <g id="Group_32945" data-name="Group 32945" transform="translate(14.019 14.864)">
        <path id="Path_38637" data-name="Path 38637" d="M282.864,385.42a.3.3,0,0,1-.3-.3v-.5a.3.3,0,1,1,.6,0v.5A.3.3,0,0,1,282.864,385.42Z" transform="translate(-282.563 -384.317)" fill="#5a5a5a"/>
      </g>
      <path id="Path_38638" data-name="Path 38638" d="M250.182,344.449a2.783,2.783,0,0,0-.1-.4.713.713,0,0,0-.678-.484.646.646,0,0,0-.333.091.7.7,0,0,1,.328.393,2.393,2.393,0,0,1,.1.4.925.925,0,1,1,.038,1.848H249.5a2.724,2.724,0,0,1-2.344,2.249,2.721,2.721,0,0,0,3.027-2.249h.038a.925.925,0,1,0-.038-1.848Z" transform="translate(-234.506 -330.276)" fill="#ffb09e"/>
      <path id="Path_38639" data-name="Path 38639" d="M177.569,266.924h-.47a2.477,2.477,0,0,0-1.561.551l0,0a2.11,2.11,0,0,0-1.752,2.079v1.343a.92.92,0,0,1,.456-.12h.038a2.7,2.7,0,0,1,.314-.886s.886,1.339,1.679,1.106a1.344,1.344,0,0,1-.225-.575,1.414,1.414,0,0,0,1.318.575,1.344,1.344,0,0,1-.225-.575c.33.344.8.706,1.247.575l-.079-.135a.65.65,0,0,1,.566-.971.712.712,0,0,1,.678.485,2.7,2.7,0,0,1,.1.4h.038a.92.92,0,0,1,.464.125v-1.387A2.588,2.588,0,0,0,177.569,266.924Z" transform="translate(-163.979 -256.601)" fill="#ac5e2e"/>
      <path id="Path_38640" data-name="Path 38640" d="M251.515,266.924h-.47a2.51,2.51,0,0,0-.333.022,2.587,2.587,0,0,1,2.253,2.565v.391a.709.709,0,0,1,.536.47,2.7,2.7,0,0,1,.1.4h.038a.92.92,0,0,1,.464.125v-1.387A2.588,2.588,0,0,0,251.515,266.924Z" transform="translate(-237.925 -256.601)" fill="#9e5528"/>
      <path id="Path_38649" data-name="Path 38649" d="M131.89,166.4a.8.8,0,0,1-.8-.8.3.3,0,0,1,.6,0,.2.2,0,0,0,.4,0,.3.3,0,0,1,.6,0A.8.8,0,0,1,131.89,166.4Z" transform="translate(-122.929 -158.904)" fill="#ffb09e"/>
      <path id="Path_38652" data-name="Path 38652" d="M342.891,166.727a.8.8,0,0,1-.8-.8.3.3,0,1,1,.6,0,.2.2,0,1,0,.4,0,.3.3,0,1,1,.6,0A.8.8,0,0,1,342.891,166.727Z" transform="translate(-325.77 -159.222)" fill="#ffb09e"/>
      <path id="Path_38653" data-name="Path 38653" d="M179.4,483.006h-6.42v-.413a.754.754,0,0,1,.754-.754h4.913a.754.754,0,0,1,.754.754Z" transform="translate(-163.197 -463.205)" fill="#0ab69f"/>
      <path id="Path_38654" data-name="Path 38654" d="M291.217,481.84H290.08a.754.754,0,0,1,.754.754v.413h1.137v-.413A.754.754,0,0,0,291.217,481.84Z" transform="translate(-275.77 -463.205)" fill="#01998d"/>
      <path id="Path_38655" data-name="Path 38655" d="M228.038,466.518a2.713,2.713,0,0,1-1.124-.242v.277a1.128,1.128,0,1,0,2.256,0v-.281A2.712,2.712,0,0,1,228.038,466.518Z" transform="translate(-215.047 -448.239)" fill="#ffa78f"/>
    </g>
  </g>
</svg>
