<svg id="Invalid" xmlns="http://www.w3.org/2000/svg" width="24" height="24" viewBox="0 0 24 24">
  <path id="Path_38225" data-name="Path 38225" d="M0,0H24V24H0Z" fill="none"/>
  <path id="Path_38226" data-name="Path 38226" d="M2.709,20.257H20.852a.961.961,0,0,0,.852-1.438L12.627,3.479a.985.985,0,0,0-1.694,0L1.857,18.819a.961.961,0,0,0,.852,1.438Zm10.055-2.876H10.806V15.463h1.958Zm-.979-3.835a.972.972,0,0,1-.979-.959V10.67a.979.979,0,0,1,1.958,0v1.917A.972.972,0,0,1,11.785,13.546Z" transform="translate(0.214 0.371)" fill="#674747"/>
</svg>
