<svg xmlns="http://www.w3.org/2000/svg" width="24" height="24" viewBox="0 0 24 24">
  <g id="Logout" transform="translate(9023 -3980)">
    <path id="Path_38656" data-name="Path 38656" d="M0,0H24V24H0Z" transform="translate(-9023 3980)" fill="none"/>
    <g id="Group_32902" data-name="Group 32902" transform="translate(-9046.204 3983)">
      <path id="Path_38314" data-name="Path 38314" d="M35.422,15.714v.932A1.994,1.994,0,0,1,34.4,18.411a1.994,1.994,0,0,1-2.038,0L28.223,16.02A1.994,1.994,0,0,1,27.2,14.255V2.038A2.041,2.041,0,0,1,29.242,0h9.122A2.041,2.041,0,0,1,40.4,2.038V4.614a.669.669,0,1,1-1.339,0V2.038a.7.7,0,0,0-.7-.7H30.371L34.4,3.667a1.994,1.994,0,0,1,1.019,1.765v8.944h2.942a.7.7,0,0,0,.7-.7V11.419a.669.669,0,1,1,1.339,0v2.257a2.041,2.041,0,0,1-2.039,2.038Zm6.2-7.188-.737.737a.669.669,0,0,0,.947.946l1.879-1.88a.669.669,0,0,0,0-.946L41.834,5.5a.669.669,0,1,0-.947.946l.737.737H36.686a.669.669,0,0,0,0,1.339h4.938Z" transform="translate(0)" fill="#674747" fill-rule="evenodd"/>
    </g>
  </g>
</svg>
