<svg xmlns="http://www.w3.org/2000/svg" width="363.781" height="338.974" viewBox="0 0 363.781 338.974">
  <g id="Welcome-bro" transform="translate(-60.464 -70.692)">
    <g id="freepik--background-simple--inject-24" transform="translate(60.464 70.692)">
      <path id="Path_40632" data-name="Path 40632" d="M183.69,383.887h6.79c5.758-.114,11.07-.483,16.033-1.051V274.67H183.69Z" transform="translate(-66.996 -81.504)" fill="#094d6d"/>
      <path id="Path_40633" data-name="Path 40633" d="M228.27,379.149a112.758,112.758,0,0,0,22.813-8.883V274.62H228.27Z" transform="translate(-69.359 -81.502)" fill="#094d6d"/>
      <path id="Path_40634" data-name="Path 40634" d="M272.84,358.526c7.576-4.9,14.565-9.157,22.823-11.288V274.67H272.84Z" transform="translate(-71.722 -81.504)" fill="#094d6d"/>
      <path id="Path_40635" data-name="Path 40635" d="M317.42,346.225a116.854,116.854,0,0,1,22.823,5.455V274.67H317.42Z" transform="translate(-74.085 -81.504)" fill="#094d6d"/>
      <path id="Path_40636" data-name="Path 40636" d="M69.066,309.15q1.989,5.445,4.309,10.644V274.67H61.32a143.651,143.651,0,0,0,7.746,34.48Z" transform="translate(-60.51 -81.504)" fill="#094d6d"/>
      <path id="Path_40637" data-name="Path 40637" d="M94.53,350.543a91.62,91.62,0,0,0,22.823,18.552V274.67H94.53Z" transform="translate(-62.27 -81.504)" fill="#094d6d"/>
      <path id="Path_40638" data-name="Path 40638" d="M139.11,377.589a127.986,127.986,0,0,0,22.823,4.972V274.67H139.11Z" transform="translate(-64.633 -81.504)" fill="#094d6d"/>
      <path id="Path_40639" data-name="Path 40639" d="M362,357.532a58.43,58.43,0,0,0,22.823,1.1V274.67H362Z" transform="translate(-76.448 -81.504)" fill="#094d6d"/>
      <path id="Path_40640" data-name="Path 40640" d="M401.434,136.923A184.529,184.529,0,0,0,377.883,100.8c-38.779-45.92-117.1-31.6-147.248-7.9s-31.6,56.744-57.464,65.342-45.967-7.9-80.447,12.936c-23.334,14.1-33.145,47.615-32.2,81.167H423.566c.18-2.737.331-5.417.436-8.012A218.1,218.1,0,0,0,401.434,136.923ZM94.675,206.707l-4.347-2.282-4.347,2.282.833-4.839-3.523-3.428,4.858-.71,2.178-4.4,2.178,4.4,4.858.71-3.523,3.428Zm99.235,9.555-6.269,8.135-2.614-9.943L175.4,211,184,205.447l.313-10.228,7.926,6.468,9.83-2.86-3.7,9.546,5.758,8.457ZM242.4,153.107l-.814,5.909-4.2-4.243-5.871,1.042,2.756-5.284-2.841-5.265,5.89.947,4.138-4.3.947,5.89,5.36,2.614ZM264.575,244.2l-4.735-2.5-4.735,2.5.947-5.294-3.854-3.788,5.322-.777,2.377-4.811,2.377,4.811,5.322.777-3.854,3.788ZM330.514,88.617l-2.491-1.307-2.491,1.307.474-2.775L324,83.882l2.784-.407,1.241-2.519,1.241,2.519,2.784.407-2.008,1.96ZM404.379,219.8l-6.279-3.3-6.3,3.305,1.2-7.008-5.095-4.972,7.036-1.023,3.153-6.373,3.153,6.373,7.036,1.023L403.2,212.8Z" transform="translate(-60.464 -70.692)" fill="#094d6d"/>
      <path id="Path_40641" data-name="Path 40641" d="M406.58,351.916c1.089-.568,2.188-1.174,3.3-1.828,8.476-4.934,14.8-13.807,19.518-24.707V274.67H406.58Z" transform="translate(-78.811 -81.504)" fill="#094d6d"/>
      <g id="Group_33821" data-name="Group 33821" opacity="0.7">
        <path id="Path_40642" data-name="Path 40642" d="M183.69,383.887h6.79c5.758-.114,11.07-.483,16.033-1.051V274.67H183.69Z" transform="translate(-66.996 -81.504)" fill="#fff"/>
        <path id="Path_40643" data-name="Path 40643" d="M228.27,379.149a112.758,112.758,0,0,0,22.813-8.883V274.62H228.27Z" transform="translate(-69.359 -81.502)" fill="#fff"/>
        <path id="Path_40644" data-name="Path 40644" d="M272.84,358.526c7.576-4.9,14.565-9.157,22.823-11.288V274.67H272.84Z" transform="translate(-71.722 -81.504)" fill="#fff"/>
        <path id="Path_40645" data-name="Path 40645" d="M317.42,346.225a116.854,116.854,0,0,1,22.823,5.455V274.67H317.42Z" transform="translate(-74.085 -81.504)" fill="#fff"/>
        <path id="Path_40646" data-name="Path 40646" d="M69.066,309.15q1.989,5.445,4.309,10.644V274.67H61.32a143.651,143.651,0,0,0,7.746,34.48Z" transform="translate(-60.51 -81.504)" fill="#fff"/>
        <path id="Path_40647" data-name="Path 40647" d="M94.53,350.543a91.62,91.62,0,0,0,22.823,18.552V274.67H94.53Z" transform="translate(-62.27 -81.504)" fill="#fff"/>
        <path id="Path_40648" data-name="Path 40648" d="M139.11,377.589a127.986,127.986,0,0,0,22.823,4.972V274.67H139.11Z" transform="translate(-64.633 -81.504)" fill="#fff"/>
        <path id="Path_40649" data-name="Path 40649" d="M362,357.532a58.43,58.43,0,0,0,22.823,1.1V274.67H362Z" transform="translate(-76.448 -81.504)" fill="#fff"/>
        <path id="Path_40650" data-name="Path 40650" d="M401.434,136.923A184.529,184.529,0,0,0,377.883,100.8c-38.779-45.92-117.1-31.6-147.248-7.9s-31.6,56.744-57.464,65.342-45.967-7.9-80.447,12.936c-23.334,14.1-33.145,47.615-32.2,81.167H423.566c.18-2.737.331-5.417.436-8.012A218.1,218.1,0,0,0,401.434,136.923ZM94.675,206.707l-4.347-2.282-4.347,2.282.833-4.839-3.523-3.428,4.858-.71,2.178-4.4,2.178,4.4,4.858.71-3.523,3.428Zm99.235,9.555-6.269,8.135-2.614-9.943L175.4,211,184,205.447l.313-10.228,7.926,6.468,9.83-2.86-3.7,9.546,5.758,8.457ZM242.4,153.107l-.814,5.909-4.2-4.243-5.871,1.042,2.756-5.284-2.841-5.265,5.89.947,4.138-4.3.947,5.89,5.36,2.614ZM264.575,244.2l-4.735-2.5-4.735,2.5.947-5.294-3.854-3.788,5.322-.777,2.377-4.811,2.377,4.811,5.322.777-3.854,3.788ZM330.514,88.617l-2.491-1.307-2.491,1.307.474-2.775L324,83.882l2.784-.407,1.241-2.519,1.241,2.519,2.784.407-2.008,1.96ZM404.379,219.8l-6.279-3.3-6.3,3.305,1.2-7.008-5.095-4.972,7.036-1.023,3.153-6.373,3.153,6.373,7.036,1.023L403.2,212.8Z" transform="translate(-60.464 -70.692)" fill="#fff"/>
        <path id="Path_40651" data-name="Path 40651" d="M406.58,351.916c1.089-.568,2.188-1.174,3.3-1.828,8.476-4.934,14.8-13.807,19.518-24.707V274.67H406.58Z" transform="translate(-78.811 -81.504)" fill="#fff"/>
      </g>
    </g>
    <g id="freepik--Shadow--inject-24" transform="translate(122.895 382.383)">
      <ellipse id="Ellipse_1633" data-name="Ellipse 1633" cx="52.075" cy="7.898" rx="52.075" ry="7.898" transform="translate(145.808 11.487)" fill="#094d6d"/>
      <ellipse id="Ellipse_1634" data-name="Ellipse 1634" cx="52.075" cy="7.898" rx="52.075" ry="7.898" transform="translate(145.808 11.487)" fill="#fff" opacity="0.5"/>
      <ellipse id="Ellipse_1635" data-name="Ellipse 1635" cx="39.149" cy="7.898" rx="39.149" ry="7.898" transform="translate(0 0)" fill="#094d6d"/>
      <ellipse id="Ellipse_1636" data-name="Ellipse 1636" cx="39.149" cy="7.898" rx="39.149" ry="7.898" transform="translate(0 0)" fill="#fff" opacity="0.5"/>
    </g>
    <g id="freepik--Plants--inject-24" transform="translate(118.72 235.436)">
      <path id="Path_40652" data-name="Path 40652" d="M146.27,381.9l19.934-8.3c-1.392-2.282-2.784-1.2-4.564-4.9-.947-1.894-.114-4.943-1.307-7.387-.947-2-3.892-3.267-5.029-5.559-1.032-2.064-.284-5.142-1.4-7.368s-3.987-3.324-5.1-5.493-.388-5.218-1.515-7.349-4.072-3.3-5.2-5.407-.53-5.256-1.686-7.311-4.2-3.248-5.36-5.227c-1.307-2.216-.824-5.35-2.027-7.235-1.468-2.292-4.527-3.125-5.767-4.735-2.33-3.03-3.58-6.364-4.735-6.137s-.152,3.58.483,7.576c.322,1.989-1.174,4.735-.511,7.4.53,2.14,3.144,3.921,3.864,6.364.634,2.188-.634,5.076.114,7.434s3.381,3.864,4.148,6.165-.436,5.171.341,7.434,3.5,3.845,4.29,6.07-.322,5.227.473,7.424,3.589,3.864,4.375,6.013c.881,2.377-.208,5.332.568,7.405.947,2.519,3.722,4.053,4.451,5.957,1.581,4.157-.644,4.082.663,7.415Z" transform="translate(-121.981 -247.564)" fill="#2e353a"/>
      <line id="Line_9" data-name="Line 9" x2="29.641" y2="71.204" transform="translate(2.821 58.65)" fill="none" stroke="#fff" stroke-miterlimit="10" stroke-width="0.361"/>
      <path id="Path_40653" data-name="Path 40653" d="M131.182,313.11l-2.083,4.148-4.129-2.434" transform="translate(-122.14 -248.286)" fill="none" stroke="#fff" stroke-miterlimit="10" stroke-width="0.361"/>
      <path id="Path_40654" data-name="Path 40654" d="M136.623,326.19l-2.074,4.157-4.129-2.434" transform="translate(-122.428 -248.979)" fill="none" stroke="#fff" stroke-miterlimit="10" stroke-width="0.361"/>
      <path id="Path_40655" data-name="Path 40655" d="M141.752,338.5l-2.074,4.157-4.138-2.434" transform="translate(-122.7 -249.632)" fill="none" stroke="#fff" stroke-miterlimit="10" stroke-width="0.361"/>
      <path id="Path_40656" data-name="Path 40656" d="M147.852,353.14l-2.083,4.157-4.129-2.434" transform="translate(-123.023 -250.408)" fill="none" stroke="#fff" stroke-miterlimit="10" stroke-width="0.361"/>
      <path id="Path_40657" data-name="Path 40657" d="M154.013,367.94l-2.074,4.157-4.129-2.434" transform="translate(-123.35 -251.192)" fill="none" stroke="#fff" stroke-miterlimit="10" stroke-width="0.361"/>
      <path id="Path_40658" data-name="Path 40658" d="M145.205,373.489l32.52-1.032c-.748-3.958-3.277-3.182-3.788-9.328-.265-3.106,2.481-7.036,2.1-11.108-.313-3.352-3.731-6.686-4.11-10.521-.341-3.457,2.358-7.4,1.97-11.127-.379-3.523-3.845-6.809-4.252-10.464s2.235-7.576,1.8-11.165-3.968-6.828-4.441-10.417,2.064-7.69,1.534-11.193c-.549-3.712-4.167-6.828-4.735-10.246-.653-3.788,1.7-7.974,1.013-11.25-.843-4.025-4.735-6.837-5.587-9.792-1.648-5.512-1.638-10.881-3.39-11.175s-2.131,4.953-3.352,10.871c-.616,2.974-4.2,6.08-4.678,10.152-.388,3.3,2.339,7.2,2.036,11.014-.275,3.428-3.6,6.818-3.788,10.531-.2,3.5,2.708,7.263,2.547,10.919s-3.371,7.036-3.485,10.644,2.841,7.282,2.794,10.843-3.248,7.2-3.305,10.71c-.057,3.712,2.992,7.358,2.955,10.805,0,3.788-3.144,7.405-3.153,10.748,0,4.044,3.068,7.68,3.078,10.767,0,6.686-3.087,5.4-3.03,10.786Z" transform="translate(-123.17 -244.658)" fill="#2e353a"/>
      <line id="Line_10" data-name="Line 10" x2="3.703" y2="116.139" transform="translate(32.254 10.751)" fill="none" stroke="#fff" stroke-miterlimit="10" stroke-width="0.544"/>
      <path id="Path_40659" data-name="Path 40659" d="M161.269,268.65l-5.152,4.735L151.6,267.75" transform="translate(-123.551 -245.882)" fill="none" stroke="#fff" stroke-miterlimit="10" stroke-width="0.544"/>
      <path id="Path_40660" data-name="Path 40660" d="M161.949,289.99l-5.152,4.744L152.28,289.1" transform="translate(-123.587 -247.013)" fill="none" stroke="#fff" stroke-miterlimit="10" stroke-width="0.544"/>
      <path id="Path_40661" data-name="Path 40661" d="M162.589,310.07l-5.152,4.735-4.517-5.635" transform="translate(-123.621 -248.077)" fill="none" stroke="#fff" stroke-miterlimit="10" stroke-width="0.544"/>
      <path id="Path_40662" data-name="Path 40662" d="M163.349,333.95l-5.152,4.744-4.508-5.635" transform="translate(-123.662 -249.344)" fill="none" stroke="#fff" stroke-miterlimit="10" stroke-width="0.544"/>
      <path id="Path_40663" data-name="Path 40663" d="M164.119,358.09l-5.152,4.744L154.45,357.2" transform="translate(-123.702 -250.623)" fill="none" stroke="#fff" stroke-miterlimit="10" stroke-width="0.544"/>
      <path id="Path_40664" data-name="Path 40664" d="M165.759,303.124c1.667,1.146,6.155,1.894,6.165,1.894s-.4-3.106-.445-3.3c-.587-2.244-3.03-6.231-5.616-6.373a3.068,3.068,0,0,0-3.154,3.3C162.785,300.492,164.329,302.139,165.759,303.124Z" transform="translate(-124.14 -247.344)" fill="#2e353a"/>
      <path id="Path_40665" data-name="Path 40665" d="M213.2,313.179s1.392-2.841,1.458-3c.748-2.188.947-6.866-1.165-8.419a3.068,3.068,0,0,0-4.451,1.023c-.947,1.572-.568,3.788.076,5.4C209.919,310.064,213.2,313.179,213.2,313.179Z" transform="translate(-126.566 -247.655)" fill="#2e353a"/>
      <path id="Path_40666" data-name="Path 40666" d="M227.131,298.657c-2.481-.758-6.165,2.121-7.491,4.025-.114.161-1.619,2.936-1.572,2.945h.057c-.587.445-1.2.947-1.894,1.487-1.222,1.023-2.6,2.2-4.015,3.57a55.042,55.042,0,0,0-4.347,4.64,40.284,40.284,0,0,0-4.072,5.833v.076c.161-.739.53-2.841.54-2.992.142-2.311-.947-6.866-3.352-7.813a3.068,3.068,0,0,0-4.034,2.169c-.492,1.761.464,3.788,1.506,5.18,1.184,1.553,4.905,3.561,5.208,3.722a55.07,55.07,0,0,0-3.021,6.629c-.5,1.316-.947,2.652-1.43,4.006.114-.644.218-1.231.218-1.307.142-2.311-.947-6.866-3.343-7.813a3.068,3.068,0,0,0-4.025,2.159c-.5,1.761.455,3.788,1.5,5.18s4.2,3.172,5.047,3.627l-.511,1.563c-.8,2.491-1.591,4.991-2.434,7.415-.3.852-.625,1.686-.947,2.51.095-.568.18-1.061.189-1.127.142-2.32-.947-6.866-3.352-7.813a3.059,3.059,0,0,0-4.025,2.159c-.492,1.761.455,3.788,1.506,5.18s3.9,3,4.886,3.551c-.35.833-.71,1.686-1.089,2.481-.275.54-.5,1.08-.8,1.61s-.578,1.051-.862,1.563c-.587.947-1.193,1.989-1.79,2.936-.407.653-.8,1.269-1.212,1.894.3-.852.871-2.519.947-2.661a11.923,11.923,0,0,0-.473-5.994,3.381,3.381,0,0,0,.095-.682,3.068,3.068,0,0,0-3.191-3.267c-2.585.18-4.991,4.2-5.54,6.44,0,.133-.227,1.61-.341,2.547a16.712,16.712,0,0,0-.057-1.676c0-1.136-.133-2.273-.208-3.494-.066-.587-.123-1.184-.189-1.78s-.17-1.222-.256-1.837c-.227-1.43-.53-2.841-.871-4.3,1,0,4.536-.246,6.089-1.023s3.305-2.188,3.646-3.987a3.068,3.068,0,0,0-2.661-3.712c-2.585-.218-5.559,3.39-6.449,5.521-.057.142-.521,1.742-.767,2.633-.208-.862-.407-1.724-.644-2.595-.691-2.491-1.468-5-2.235-7.51l-.682-2.3c.35,0,4.564-.161,6.307-1.032,1.544-.767,3.305-2.188,3.636-3.987a3.059,3.059,0,0,0-2.652-3.712c-2.585-.218-5.568,3.39-6.458,5.53-.066.161-.739,2.472-.881,3.068-.492-1.7-.947-3.381-1.383-5.066a53.2,53.2,0,0,1-1.241-6.9c.161,0,4.555-.142,6.345-1.032,1.544-.767,3.305-2.188,3.636-3.987a3.059,3.059,0,0,0-2.652-3.712c-2.585-.218-5.568,3.39-6.459,5.521-.057.142-.568,1.894-.8,2.746h-.142a39.831,39.831,0,0,1,0-7.055c.1-1.288.275-2.519.464-3.712.824.057,4.583.284,6.279-.341s3.523-1.809,4.053-3.561A3.068,3.068,0,0,0,180.2,297c-2.547-.5-5.9,2.756-7.017,4.782-.066.114-.559,1.3-.947,2.169.095-.53.18-1.089.284-1.6.379-1.894.843-3.665,1.269-5.2.246-.871.483-1.657.72-2.386.833-.369,4.186-1.894,5.379-3.182s2.292-3.229,1.96-5.038a3.068,3.068,0,0,0-3.788-2.5c-2.481.729-3.958,5.161-4.025,7.481,0,.2.275,3.333.322,3.314h0c-.237.7-.492,1.449-.739,2.282-.464,1.525-.947,3.258-1.383,5.19a53.591,53.591,0,0,0-1.061,6.269,39.162,39.162,0,0,0-.18,7.112.265.265,0,0,0,0,.085c-.284-.7-1.127-2.652-1.212-2.794-1.146-2.008-4.565-5.218-7.093-4.678a3.078,3.078,0,0,0-2.169,4.025c.559,1.742,2.481,2.926,4.11,3.494,1.847.644,6.061.265,6.392.227a53.345,53.345,0,0,0,1.127,7.169c.294,1.373.644,2.756,1.013,4.129-.265-.606-.5-1.136-.54-1.212-1.155-2.008-4.564-5.208-7.1-4.669a3.068,3.068,0,0,0-2.169,4.025c.559,1.742,2.481,2.917,4.119,3.494s5.256.322,6.2.246c.152.521.284,1.051.436,1.572.71,2.528,1.43,5.047,2.055,7.529.227.881.407,1.752.6,2.623-.227-.53-.426-.947-.464-1.051-1.155-2.008-4.564-5.208-7.1-4.669a3.078,3.078,0,0,0-2.169,4.025c.559,1.742,2.481,2.926,4.119,3.494s4.905.35,6.032.256c.17.9.341,1.8.455,2.68.076.6.18,1.174.218,1.78s.095,1.193.142,1.79c.057,1.136.114,2.311.133,3.419v2.254c-.208-.871-.653-2.576-.71-2.718-.833-2.159-3.722-5.843-6.307-5.682a3.078,3.078,0,0,0-2.756,3.646c.294,1.809,2.008,3.267,3.542,4.082,1.676.89,5.739,1.165,6.241,1.193v3.551c-.057,3.542-.227,6.534-.388,8.75l1.714.341c.114-2.273.227-5.388.218-9.082,0-1.25,0-2.576-.076-3.949a32.064,32.064,0,0,0,3.788-.947c1.032,1.667,4.053,3.968,4.441,4.261-.672,1.032-1.335,2.027-1.97,2.955-1.989,2.888-3.788,5.265-5.123,7.027l1.894.36c1.26-1.724,2.841-3.93,4.517-6.534.691-1.042,1.4-2.169,2.121-3.333.464.189,4.224,1.752,6.127,1.7,1.733-.057,3.921-.606,4.981-2.1a3.068,3.068,0,0,0-.852-4.479c-2.263-1.278-6.477.748-8.182,2.311-.1.095-1.08,1.222-1.686,1.894.294-.483.578-.947.871-1.439.6-.947,1.155-1.96,1.761-3.021l.824-1.591c.294-.521.53-1.117.8-1.676.6-1.316,1.136-2.68,1.648-4.063.862.521,3.921,2.3,5.682,2.51s3.968,0,5.237-1.316a3.068,3.068,0,0,0-.161-4.565c-2.036-1.61-6.515-.246-8.438,1.051-.114.076-1.392,1.155-2.083,1.761.3-.833.606-1.657.89-2.519.8-2.462,1.534-4.981,2.282-7.491.227-.767.464-1.534.7-2.292.3.18,3.892,2.377,5.824,2.614,1.724.208,3.968,0,5.237-1.316a3.068,3.068,0,0,0-.161-4.565c-2.036-1.61-6.515-.246-8.438,1.051-.142.095-1.979,1.657-2.424,2.074.511-1.686,1.042-3.362,1.638-4.991a53.98,53.98,0,0,1,2.765-6.44c.142.085,3.883,2.4,5.862,2.633,1.724.218,3.968,0,5.237-1.316a3.068,3.068,0,0,0-.161-4.565c-2.036-1.6-6.515-.237-8.438,1.051-.123.085-1.525,1.269-2.178,1.894l-.114-.095a39.774,39.774,0,0,1,3.911-5.871c.8-1.013,1.619-1.951,2.434-2.841.653.492,3.665,2.756,5.426,3.172s3.939.426,5.35-.739a3.068,3.068,0,0,0,.331-4.555c-1.847-1.818-6.44-.947-8.523.114-.114.066-1.184.777-1.951,1.316.369-.4.748-.814,1.117-1.184,1.383-1.392,2.727-2.595,3.93-3.636.682-.6,1.316-1.117,1.894-1.591.9.152,4.527.739,6.241.313s3.7-1.43,4.413-3.116a3.078,3.078,0,0,0-1.761-4.28Z" transform="translate(-124.014 -246.74)" fill="#2e353a"/>
      <rect id="Rectangle_4751" data-name="Rectangle 4751" width="70.485" height="9.328" transform="translate(9.204 120.63)" fill="#2e353a"/>
      <path id="Path_40667" data-name="Path 40667" d="M191.386,408.651H143.052L137.01,380.8h60.418Z" transform="translate(-122.778 -251.874)" fill="#2e353a"/>
    </g>
    <g id="freepik--Ribbon--inject-24" transform="translate(89.597 79.475)">
      <path id="Path_40668" data-name="Path 40668" d="M130.69,220.4l-.71,67.18s-2.841,1.43-10.72,1.43-10.72-1.43-10.72-1.43l2.841-27.16s-9.991-2.14-9.991-4.981S123.54,174,123.54,174,134.98,193.953,130.69,220.4Z" transform="translate(-91.766 -84.952)" fill="#094d6d" stroke="#2e353a" stroke-miterlimit="10" stroke-width="1"/>
      <line id="Line_11" data-name="Line 11" y1="42.804" x2="9.262" transform="translate(19.624 132.657)" fill="none" stroke="#2e353a" stroke-miterlimit="10" stroke-width="1"/>
      <path id="Path_40669" data-name="Path 40669" d="M115.73,173.18s12.86,17.15,14.29,24.3,1.43,22.16,1.43,22.16a117.238,117.238,0,0,0,7.86-32.87c1.43-17.87-12.86-27.16-12.86-27.16Z" transform="translate(-92.527 -84.189)" fill="#2e353a" stroke="#2e353a" stroke-miterlimit="10" stroke-width="1"/>
      <path id="Path_40670" data-name="Path 40670" d="M370.866,220.4l.71,67.18s2.841,1.43,10.72,1.43,10.72-1.43,10.72-1.43l-2.841-27.16s9.991-2.14,9.991-4.981S378.006,174,378.006,174,366.576,193.953,370.866,220.4Z" transform="translate(-106 -84.952)" fill="#094d6d" stroke="#2e353a" stroke-miterlimit="10" stroke-width="1"/>
      <line id="Line_12" data-name="Line 12" x1="8.589" y1="49.774" transform="translate(275.567 125.688)" fill="none" stroke="#2e353a" stroke-miterlimit="10" stroke-width="1"/>
      <path id="Path_40671" data-name="Path 40671" d="M386.194,173.18s-12.87,17.15-14.3,24.3-1.421,22.15-1.421,22.15a117.06,117.06,0,0,1-7.869-32.87c-1.43-17.87,12.87-27.16,12.87-27.16Z" transform="translate(-105.607 -84.188)" fill="#2e353a" stroke="#2e353a" stroke-miterlimit="10" stroke-width="1"/>
      <path id="Path_40672" data-name="Path 40672" d="M371.71,169.17a252.7,252.7,0,0,0-257.279,0L91.874,131.025c-1.619-2.708-.095-6.629,3.457-8.58a302.754,302.754,0,0,1,295.462,0c3.542,1.979,5.076,5.871,3.457,8.58Z" transform="translate(-91.228 -80.179)" fill="#094d6d"/>
      <path id="Path_40673" data-name="Path 40673" d="M371.71,169.17a252.7,252.7,0,0,0-257.279,0L91.874,131.025c-1.619-2.708-.095-6.629,3.457-8.58a302.754,302.754,0,0,1,295.462,0c3.542,1.979,5.076,5.871,3.457,8.58Z" transform="translate(-91.228 -80.179)" fill="none" stroke="#2e353a" stroke-miterlimit="10" stroke-width="1"/>
      <text id="W" transform="matrix(0.952, -0.305, 0.305, 0.952, 44.979, 63.497)" fill="#fff" font-size="41" font-family="Nunito-Black, Nunito" font-weight="800"><tspan x="0" y="0">W</tspan></text>
      <text id="E" transform="translate(86.796 50.535) rotate(-12.095)" fill="#fff" font-size="41" font-family="Nunito-Black, Nunito" font-weight="800"><tspan x="0" y="0">E</tspan></text>
      <text id="L" transform="translate(111.054 45.308) rotate(-7.481)" fill="#fff" font-size="41" font-family="Nunito-Black, Nunito" font-weight="800"><tspan x="0" y="0">L</tspan></text>
      <text id="C" transform="matrix(0.999, -0.036, 0.036, 0.999, 134.328, 42.026)" fill="#fff" font-size="41" font-family="Nunito-Black, Nunito" font-weight="800"><tspan x="0" y="0">C</tspan></text>
      <text id="O" transform="translate(161.941 40.835) rotate(5.143)" fill="#fff" font-size="41" font-family="Nunito-Black, Nunito" font-weight="800"><tspan x="0" y="0">O</tspan></text>
      <text id="M" transform="translate(194.084 43.55) rotate(13.58)" fill="#fff" font-size="41" font-family="Nunito-Black, Nunito" font-weight="800"><tspan x="0" y="0">M</tspan></text>
      <text id="E-2" data-name="E" transform="translate(232.701 53.311) rotate(21.16)" fill="#fff" font-size="41" font-family="Nunito-Black, Nunito" font-weight="800"><tspan x="0" y="0">E</tspan></text>
    </g>
    <g id="freepik--Character--inject-24" transform="translate(237.898 153.441)">
      <path id="Path_40674" data-name="Path 40674" d="M335.3,217.286s-12.046-8.9-17.832-13.258-15.7-16.856-18.182-22.349a86.177,86.177,0,0,0-4.129-8.267s1.146-5.521,1.146-6.885-1.108-3.163-1.809-4.318c-.35-.578-2.841-3.883-2.841-1.364,0,1.97,1.184,2.955,1.184,4.138h0a9.669,9.669,0,0,1-3.788-3.788c-1.383-2.557-1.97-3.551-2.765-2.955-1.411,1.061.4,3.788.4,3.788s-.4-3.788-2.367-3.163c-1.136.341.4,3.551,1.184,4.934s-.4-.947-.2,1.383c.142,1.733,2.121,5.994,3.949,8.087.663.767,2.206.53,2.367.8.587.947,6.9,15.588,11.241,22.889s6.913,9.47,10.464,13.021,8.286,9.669,12.425,12.623,6.316,1.78,8.684-.2S337.15,219.293,335.3,217.286Z" transform="translate(-249.743 -158.073)" fill="#fff" stroke="#2e353a" stroke-linecap="round" stroke-linejoin="round" stroke-width="1"/>
      <path id="Path_40675" data-name="Path 40675" d="M293.2,165.36s-1.78,3.362-.947,4.735" transform="translate(-250.173 -158.459)" fill="none" stroke="#2e353a" stroke-linecap="round" stroke-linejoin="round" stroke-width="1"/>
      <line id="Line_13" data-name="Line 13" x2="1.581" y2="2.955" transform="translate(36.914 3.946)" fill="none" stroke="#2e353a" stroke-linecap="round" stroke-linejoin="round" stroke-width="1"/>
      <path id="Path_40676" data-name="Path 40676" d="M288.461,171.826a34.02,34.02,0,0,1-3.551-5.53c-.786-1.97-.189-6.307.994-5.521s.786,5.133.786,5.133l2.367,2.756" transform="translate(-249.777 -158.211)" fill="#fff" stroke="#2e353a" stroke-linecap="round" stroke-linejoin="round" stroke-width="1"/>
      <path id="Path_40677" data-name="Path 40677" d="M340.585,193.237s-6.051-2.206-4.953-9.915,7.709-3.854,7.709-3.854-6.629-8.816,6.885-10.739,23.419,10.19,26.724,23.675-17.633,14.868-14.6,25.067,14.877,21.781,12.945,35.806-21.2,21.781-30.02,14.319-12.4-19-7.405-29.489,7.709-22.86,9.082-28.41S340.585,193.237,340.585,193.237Z" transform="translate(-252.477 -158.627)" fill="#2e353a" stroke="#2e353a" stroke-linecap="round" stroke-linejoin="round" stroke-width="1"/>
      <path id="Path_40678" data-name="Path 40678" d="M363.048,203.87c-8.286-3.314-12.548-16.809-12.548-24.385s10.654-3.788,10.654-3.788-10.417,1.894-5.208,12.074,14.442,13.258,19.177,10.18" transform="translate(-253.272 -158.957)" fill="none" stroke="#fff" stroke-linecap="round" stroke-linejoin="round" stroke-width="0.75"/>
      <path id="Path_40679" data-name="Path 40679" d="M361.192,213.25s-7.339,2.367-5.208,11.6,18.466,20.834,13.731,32.671-13.021,16.572-22.965,13.021" transform="translate(-253.074 -160.997)" fill="none" stroke="#fff" stroke-linecap="round" stroke-linejoin="round" stroke-width="0.75"/>
      <path id="Path_40680" data-name="Path 40680" d="M357.19,215.25s-8.049,3.314-9,15.152,8.76,22.018,4.261,27.936-11.837,5.208-14.2,1.657" transform="translate(-252.623 -161.103)" fill="none" stroke="#fff" stroke-linecap="round" stroke-linejoin="round" stroke-width="0.75"/>
      <path id="Path_40681" data-name="Path 40681" d="M338.5,208.29s.824,3.03-1.894,7.718-4.129,5.777-4.129,5.777l9.915-.824,6.335-11.572S339.052,210.222,338.5,208.29Z" transform="translate(-252.317 -160.735)" fill="#fff" stroke="#2e353a" stroke-linecap="round" stroke-linejoin="round" stroke-width="1"/>
      <path id="Path_40682" data-name="Path 40682" d="M348.625,181.24s-9.64,8.816-11.572,16.525.549,12.671,4.138,12.671,11.014-3.03,11.014-3.03,2.206,1.894,4.4.833a3.921,3.921,0,0,0,2.207-3.305S343.662,190.057,348.625,181.24Z" transform="translate(-252.524 -159.301)" fill="#fff" stroke="#2e353a" stroke-linecap="round" stroke-linejoin="round" stroke-width="1"/>
      <path id="Path_40683" data-name="Path 40683" d="M344.892,195.095c-.663.843-1.458,1.316-1.79,1.061s-.066-1.146.6-1.989,1.458-1.316,1.78-1.061S345.545,194.252,344.892,195.095Z" transform="translate(-252.873 -159.926)" fill="#2e353a"/>
      <path id="Path_40684" data-name="Path 40684" d="M349.732,200.165c-.653.852-1.458,1.326-1.79,1.07s-.057-1.146.6-1.989,1.458-1.326,1.79-1.07S350.385,199.322,349.732,200.165Z" transform="translate(-253.129 -160.195)" fill="#2e353a"/>
      <path id="Path_40685" data-name="Path 40685" d="M344.344,197.11a17.926,17.926,0,0,0-3.229,1.515c-.862.644.644,1.506.644,1.506" transform="translate(-252.761 -160.142)" fill="none" stroke="#2e353a" stroke-linecap="round" stroke-linejoin="round" stroke-width="0.75"/>
      <path id="Path_40686" data-name="Path 40686" d="M339.08,202.57a3.305,3.305,0,0,0,3.021,2.585,5.521,5.521,0,0,0,3.873-.862" transform="translate(-252.667 -160.431)" fill="none" stroke="#2e353a" stroke-linecap="round" stroke-linejoin="round" stroke-width="0.75"/>
      <path id="Path_40687" data-name="Path 40687" d="M344.77,189.378a2.642,2.642,0,0,1,3.011,2.159" transform="translate(-252.969 -159.73)" fill="none" stroke="#2e353a" stroke-linecap="round" stroke-linejoin="round" stroke-width="0.75"/>
      <path id="Path_40688" data-name="Path 40688" d="M350,195.07s3.655,1.288,2.585,4.091" transform="translate(-253.246 -160.034)" fill="none" stroke="#2e353a" stroke-linecap="round" stroke-linejoin="round" stroke-width="0.75"/>
      <path id="Path_40689" data-name="Path 40689" d="M310.948,407.19s-5.095,3.4-6.8,4.243-8.911,2.121-9.129,4.034,3.608,2.974,7.86,2.974a95.808,95.808,0,0,1,11.885.426c2.547.426,4.252,1.269,5.313-1.487s-.644-9.981-.644-9.981S314.982,409.1,310.948,407.19Z" transform="translate(-250.331 -171.278)" fill="#094d6d" stroke="#2e353a" stroke-linecap="round" stroke-linejoin="round" stroke-width="1"/>
      <path id="Path_40690" data-name="Path 40690" d="M313.684,327.208s-2.964,13.8-2.964,18.258,1.7,33.334,2.121,41.393a76.055,76.055,0,0,1-1.061,15.928s3.608,1.7,5.095,1.7a7.2,7.2,0,0,0,3.39-1.487s4.252-18.684,4.252-28.656.843-15.711,0-22.084-3.788-18.04-2.765-22.292S316.875,320.835,313.684,327.208Z" transform="translate(-251.164 -166.876)" fill="#2e353a" stroke="#2e353a" stroke-linecap="round" stroke-linejoin="round" stroke-width="1"/>
      <path id="Path_40691" data-name="Path 40691" d="M313.618,262.924S310,287.413,310,305.586s7.718,39.944,9.64,42.975,18.732,33.325,22.586,39.66a85.979,85.979,0,0,1,6.743,15.1,20.775,20.775,0,0,0,4.129.824c1.383,0,3.305-1.648,3.305-1.648s-8.94-34.935-12.519-44.016-10.985-16.25-12.907-19.792-2.756-17.358-2.756-17.358,11.288-17.9,13.258-27.539-3.343-20.446-5.549-24.234a74.47,74.47,0,0,1-3.854-7.983S320.512,268.407,313.618,262.924Z" transform="translate(-251.125 -163.559)" fill="#2e353a" stroke="#2e353a" stroke-linecap="round" stroke-linejoin="round" stroke-width="1"/>
      <path id="Path_40692" data-name="Path 40692" d="M334.751,250.686s6.885-21.2,8.523-26.165-.833-6.885-8.267-6.061-20.379,6.629-20.929,12.945,1.894,9.915,1.894,12.945-4.356,16.279-1.042,19.006,13.769,1.894,16.8-1.894S334.751,250.686,334.751,250.686Z" transform="translate(-251.321 -161.264)" fill="#094d6d" stroke="#2e353a" stroke-linecap="round" stroke-linejoin="round" stroke-width="1"/>
      <path id="Path_40693" data-name="Path 40693" d="M337.473,220.542a14.612,14.612,0,0,1-2.405,9.849c-3.305,5.227-10.739,3.3-10.19-2.481S332.435,217.322,337.473,220.542Z" transform="translate(-251.913 -161.329)" fill="#fff" stroke="#2e353a" stroke-linecap="round" stroke-linejoin="round" stroke-width="1"/>
      <path id="Path_40694" data-name="Path 40694" d="M328.694,226.5a6.1,6.1,0,0,0,4.735-8.2,3.513,3.513,0,0,0-2.68-2.292c-4.735-.824-25.342.824-30.578.275s-25.057-12.671-30.3-17.349-7.159-7.159-7.159-9.091a18.185,18.185,0,0,0-2.481-7.709c-1.1-1.373-3.03-4.138-3.03-4.138s-1.894,0-1.648,1.108a23.6,23.6,0,0,0,1.648,3.58s-5.512-3.305-6.885-4.735a1.686,1.686,0,0,0-2.481-.275l3.03,3.305s-.275,2.206,1.894,5.786a25.568,25.568,0,0,0,6.061,6.335s11.013,12.945,19.281,20.1,15.966,11.572,22.86,12.671C307.036,226.9,316.525,228.729,328.694,226.5Z" transform="translate(-247.83 -159.089)" fill="#fff" stroke="#2e353a" stroke-linecap="round" stroke-linejoin="round" stroke-width="1"/>
      <path id="Path_40695" data-name="Path 40695" d="M350.431,411.2s-4.356,4.65-7.33,6.553-6.8,3.191-6.155,4.887,8.523,1.487,12.311,1.269,11.459-3.788,12.737-4.669-4.129-8.864-4.129-8.864S353.727,412.71,350.431,411.2Z" transform="translate(-252.55 -171.447)" fill="#094d6d" stroke="#2e353a" stroke-linecap="round" stroke-linejoin="round" stroke-width="1"/>
      <path id="Path_40696" data-name="Path 40696" d="M349.307,424.294c3.788-.208,11.459-3.788,12.737-4.669.35-.237.18-1.032-.237-2.046a60.425,60.425,0,0,1-13.561,4.811c-6.212,1.326-9.735.7-11.317.2a1.194,1.194,0,0,0,.066.436C337.583,424.72,345.434,424.512,349.307,424.294Z" transform="translate(-252.553 -171.828)" fill="#2e353a" stroke="#2e353a" stroke-linecap="round" stroke-linejoin="round" stroke-width="1"/>
      <path id="Path_40697" data-name="Path 40697" d="M320.078,417.89a6.032,6.032,0,0,0,.313-1.742c-1.686,1.364-2.907.72-5.625.89-3.4.218-4.669.218-11.676.218a21.7,21.7,0,0,1-8.049-1.335.133.133,0,0,1,0,.057c-.208,1.894,3.608,2.974,7.86,2.974a95.8,95.8,0,0,1,11.885.426C317.332,419.8,319.017,420.6,320.078,417.89Z" transform="translate(-250.332 -171.74)" fill="#2e353a" stroke="#2e353a" stroke-linecap="round" stroke-linejoin="round" stroke-width="1"/>
      <path id="Path_40698" data-name="Path 40698" d="M329.24,323.3s.786-13.106,2.235-15.7,4.9-6.051,7.2-8.068" transform="translate(-252.145 -165.571)" fill="none" stroke="#fff" stroke-linecap="round" stroke-linejoin="round" stroke-width="0.75"/>
    </g>
  </g>
</svg>
