<svg xmlns="http://www.w3.org/2000/svg" width="21.323" height="10.747" viewBox="0 0 21.323 10.747">
  <g id="Ticket1" transform="translate(7676.542 607.312)">
    <path id="Union_3" data-name="Union 3" d="M20.306,10.747l-3.717,0h-.714L1.031,10.723A1.022,1.022,0,0,1,.011,9.7l0-2.6A1.735,1.735,0,0,0,1.746,5.362,1.746,1.746,0,0,0,0,3.62l0-2.6A1.016,1.016,0,0,1,1.017,0L16.575.019l3.717,0a1.022,1.022,0,0,1,1.02,1.02l0,2.6a1.741,1.741,0,1,0,0,3.481l0,2.6a1.016,1.016,0,0,1-1.016,1.017Z" transform="translate(-7676.542 -607.312)" fill="#fdd82e"/>
    <path id="Union_1" data-name="Union 1" d="M0,10.68V9.97a.355.355,0,0,1,.709,0v.71ZM.176,8.96A.354.354,0,0,1,0,8.646V7.323a.355.355,0,0,1,.71,0V8.646a.354.354,0,0,1-.534.314ZM0,6V4.679a.356.356,0,1,1,.712,0V6A.356.356,0,1,1,0,6ZM0,3.357V2.034a.355.355,0,1,1,.709,0V3.355a.355.355,0,1,1-.71,0ZM.356,1.065A.353.353,0,0,1,.1.963.358.358,0,0,1,0,.71V0H.712V.71a.351.351,0,0,1-.351.354Z" transform="translate(-7674.244 -607.298)" fill="#ffcd00"/>
    <path id="Union_2" data-name="Union 2" d="M0,10.713V10a.356.356,0,0,1,.711,0v.712ZM.177,8.988A.356.356,0,0,1,0,8.673V7.347a.356.356,0,1,1,.713,0V8.673a.356.356,0,0,1-.536.315ZM0,6.02V4.693a.357.357,0,0,1,.714,0V6.02A.357.357,0,0,1,0,6.02Zm.356-2.3A.357.357,0,0,1,0,3.366V2.04a.356.356,0,1,1,.711,0V3.367a.356.356,0,0,1-.357.356Zm0-2.653A.357.357,0,0,1,.1.964.349.349,0,0,1,0,.712V0H.714V.712a.355.355,0,0,1-.355.357Z" transform="translate(-7661.629 -607.287)" fill="#ffcd00"/>
  </g>
</svg>
