<svg id="user" xmlns="http://www.w3.org/2000/svg" width="4.644" height="5.567" viewBox="0 0 4.644 5.567">
  <path id="Path_38478" data-name="Path 38478" d="M88.372,2.682a1.3,1.3,0,0,0,.948-.393,1.3,1.3,0,0,0,.393-.948A1.3,1.3,0,0,0,89.32.393a1.34,1.34,0,0,0-1.9,0,1.3,1.3,0,0,0-.393.948,1.3,1.3,0,0,0,.393.948A1.3,1.3,0,0,0,88.372,2.682Zm0,0" transform="translate(-86.085 0)"/>
  <path id="Path_38479" data-name="Path 38479" d="M4.633,248.908a3.311,3.311,0,0,0-.045-.352A2.772,2.772,0,0,0,4.5,248.2a1.747,1.747,0,0,0-.145-.33,1.245,1.245,0,0,0-.219-.286.966.966,0,0,0-.315-.2,1.089,1.089,0,0,0-.4-.073.408.408,0,0,0-.218.092l-.227.146a1.3,1.3,0,0,1-.294.129,1.141,1.141,0,0,1-.719,0,1.3,1.3,0,0,1-.294-.129l-.227-.146a.407.407,0,0,0-.218-.092,1.087,1.087,0,0,0-.4.073.966.966,0,0,0-.315.2,1.245,1.245,0,0,0-.219.286,1.75,1.75,0,0,0-.145.33,2.778,2.778,0,0,0-.086.354,3.3,3.3,0,0,0-.045.352c-.007.107-.011.217-.011.329a.924.924,0,0,0,.275.7.988.988,0,0,0,.707.258h2.68a.988.988,0,0,0,.707-.258.924.924,0,0,0,.275-.7c0-.112,0-.223-.011-.329Zm0,0" transform="translate(0 -244.627)"/>
</svg>
